<svg width="42" height="41" viewBox="0 0 42 41" fill="none" xmlns="http://www.w3.org/2000/svg">
<path d="M3.39937 0L38.7532 0C40.2558 0 41.4728 1.21007 41.4728 2.70407L41.4728 37.8571C41.4728 39.3511 40.2558 40.5612 38.7532 40.5612L3.39937 40.5612C1.89684 40.5612 0.679844 39.3511 0.679844 37.8571L0.679844 2.70407C0.679844 1.21007 1.89684 0 3.39937 0Z" fill="url(#paint0_linear_6_95)"/>
<g opacity="0.2">
<path d="M3.39937 39.5471C2.46114 39.5471 1.69967 38.79 1.69967 37.8571L1.69967 2.70407C1.69967 1.77117 2.46114 1.01403 3.39937 1.01403L38.7532 1.01403C39.6915 1.01403 40.453 1.77117 40.453 2.70407L40.453 37.8571C40.453 38.79 39.6915 39.5471 38.7532 39.5471L3.39937 39.5471ZM3.39937 40.5612L38.7532 40.5612C40.2558 40.5612 41.4728 39.3511 41.4728 37.8571L41.4728 2.70407C41.4728 1.21007 40.2558 0 38.7532 0L3.39937 0C1.89684 0 0.679844 1.21007 0.679844 2.70407L0.679844 37.8571C0.679844 39.3511 1.89684 40.5612 3.39937 40.5612Z" fill="#424242"/>
</g>
<g opacity="0.2">
<path d="M16.3103 29.7448C16.0044 29.7448 15.6916 29.64 15.4231 29.4068L7.2645 21.298C6.64581 20.7605 6.64581 19.8006 7.2645 19.2631L15.4231 11.1543C15.6916 10.9211 16.0044 10.8163 16.3103 10.8163C17.0106 10.8163 17.6769 11.3639 17.6769 12.1717L17.6769 16.9005C17.6769 17.2723 17.9828 17.5765 18.3568 17.5765H33.9941C34.7453 17.5765 35.3538 18.1815 35.3538 18.9285V21.6326C35.3538 22.3796 34.7453 22.9846 33.9941 22.9846H18.3568C17.9828 22.9846 17.6769 23.2888 17.6769 23.6606V28.3894C17.6769 29.1972 17.0106 29.7448 16.3103 29.7448ZM16.3103 30.7589C17.6259 30.7589 18.6967 29.6975 18.6967 28.3894V23.9987H33.9941C35.3062 23.9987 36.3737 22.9373 36.3737 21.6326V18.9285C36.3737 17.6238 35.3062 16.5624 33.9941 16.5624H18.6967L18.6967 12.1717C18.6967 10.867 17.6259 9.80225 16.3103 9.80225C15.7392 9.80225 15.1885 10.0118 14.75 10.3904L14.7024 10.4377L6.56422 18.5263C6.06451 18.9758 5.77896 19.6113 5.77896 20.2806C5.77896 20.9498 6.06451 21.5886 6.56422 22.0348L14.7466 30.1707C15.1851 30.5493 15.7392 30.7589 16.3103 30.7589Z" fill="#424242"/>
</g>
<path d="M15.423 29.4069L7.26443 21.298C6.64573 20.7606 6.64573 19.8006 7.26443 19.2632L15.423 11.1543C16.3001 10.3871 17.6768 11.009 17.6768 12.1717L17.6768 16.9005C17.6768 17.2723 17.9828 17.5765 18.3567 17.5765H33.994C34.7453 17.5765 35.3538 18.1816 35.3538 18.9286V21.6326C35.3538 22.3796 34.7453 22.9847 33.994 22.9847H18.3567C17.9828 22.9847 17.6768 23.2889 17.6768 23.6607V28.3895C17.6768 29.5522 16.3001 30.1741 15.423 29.4069Z" fill="#FAFAFA"/>
<defs>
<linearGradient id="paint0_linear_6_95" x1="21.0763" y1="40.4767" x2="21.0763" y2="-0.138584" gradientUnits="userSpaceOnUse">
<stop stop-color="#1EDD25"/>
<stop offset="0.3517" stop-color="#09BB71"/>
<stop offset="1" stop-color="#1EDD25"/>
</linearGradient>
</defs>
</svg>
