<svg width="41" height="41" viewBox="0 0 41 41" fill="none" xmlns="http://www.w3.org/2000/svg">
<path d="M38.1591 40.5612H2.80522C1.30268 40.5612 0.0856934 39.3511 0.0856934 37.8571V2.70408C0.0856934 1.21007 1.30268 0 2.80522 0H38.1591C39.6616 0 40.8786 1.21007 40.8786 2.70408V37.8571C40.8786 39.3511 39.6616 40.5612 38.1591 40.5612Z" fill="url(#paint0_linear_6_94)"/>
<g opacity="0.2">
<path d="M38.1591 1.01403C39.0973 1.01403 39.8588 1.77117 39.8588 2.70408V37.8571C39.8588 38.79 39.0973 39.5471 38.1591 39.5471H2.80522C1.86698 39.5471 1.10552 38.79 1.10552 37.8571V2.70408C1.10552 1.77117 1.86698 1.01403 2.80522 1.01403H38.1591ZM38.1591 0H2.80522C1.30268 0 0.0856934 1.21007 0.0856934 2.70408V37.8571C0.0856934 39.3511 1.30268 40.5612 2.80522 40.5612H38.1591C39.6616 40.5612 40.8786 39.3511 40.8786 37.8571V2.70408C40.8786 1.21007 39.6616 0 38.1591 0Z" fill="#424242"/>
</g>
<g opacity="0.2">
<path d="M25.2481 10.8163C25.5541 10.8163 25.8668 10.9211 26.1354 11.1543L34.294 19.2632C34.9127 19.8006 34.9127 20.7606 34.294 21.298L26.1354 29.4069C25.8668 29.6401 25.5541 29.7449 25.2481 29.7449C24.5479 29.7449 23.8816 29.1973 23.8816 28.3895V23.6607C23.8816 23.2889 23.5756 22.9847 23.2017 22.9847H7.5644C6.81313 22.9847 6.20464 22.3796 6.20464 21.6326V18.9286C6.20464 18.1816 6.81313 17.5765 7.5644 17.5765H23.2017C23.5756 17.5765 23.8816 17.2723 23.8816 16.9005V12.1718C23.8816 11.3639 24.5479 10.8163 25.2481 10.8163ZM25.2481 9.80231C23.9326 9.80231 22.8618 10.8637 22.8618 12.1718V16.5625H7.5644C6.25223 16.5625 5.18481 17.6238 5.18481 18.9286V21.6326C5.18481 22.9374 6.25223 23.9987 7.5644 23.9987H22.8618V28.3895C22.8618 29.6942 23.9326 30.7589 25.2481 30.7589C25.8192 30.7589 26.3699 30.5493 26.8085 30.1708L26.8561 30.1234L34.9943 22.0349C35.494 21.5853 35.7795 20.9499 35.7795 20.2806C35.7795 19.6113 35.494 18.9725 34.9943 18.5263L26.8119 10.3904C26.3733 10.0119 25.8192 9.80231 25.2481 9.80231Z" fill="#424242"/>
</g>
<path d="M26.1355 11.1543L34.294 19.2631C34.9127 19.8006 34.9127 20.7605 34.294 21.298L26.1355 29.4068C25.2584 30.1741 23.8816 29.5522 23.8816 28.3894V23.6607C23.8816 23.2888 23.5757 22.9846 23.2018 22.9846H7.56448C6.81321 22.9846 6.20471 22.3796 6.20471 21.6326V18.9285C6.20471 18.1815 6.81321 17.5765 7.56448 17.5765H23.2018C23.5757 17.5765 23.8816 17.2723 23.8816 16.9005V12.1717C23.8816 11.009 25.2584 10.387 26.1355 11.1543Z" fill="#FAFAFA"/>
<defs>
<linearGradient id="paint0_linear_6_94" x1="20.4822" y1="0.0845024" x2="20.4822" y2="40.6997" gradientUnits="userSpaceOnUse">
<stop stop-color="#1EDD25"/>
<stop offset="0.3517" stop-color="#09BB71"/>
<stop offset="1" stop-color="#1EDD25"/>
</linearGradient>
</defs>
</svg>
