<svg width="58" height="59" viewBox="0 0 58 59" fill="none" xmlns="http://www.w3.org/2000/svg">
<path d="M38.7599 1.84028e-05C37.1728 0.012049 35.6667 0.980924 35.0211 2.56843L35.0052 2.60084C27.6567 1.54813 20.3519 6.15398 17.5046 13.1338C17.5046 13.1338 9.70807 32.2996 2.49383 32.0444C2.41645 32.061 2.36173 32.1226 2.27905 32.1416C1.96503 32.2309 1.66475 32.3748 1.39606 32.563C1.2861 32.6379 1.17399 32.6804 1.07787 32.7655C0.711719 33.0734 0.423436 33.4642 0.234659 33.9079C-0.413702 35.5023 0.327724 37.3165 1.88926 37.9753L41.4009 54.6416C42.9663 55.302 44.7379 54.5588 45.3863 52.9644C45.561 52.5147 45.63 52.028 45.5852 51.5465C45.577 51.417 45.5292 51.3005 45.5056 51.1738C45.4453 50.8465 45.3332 50.5316 45.1715 50.2421C45.13 50.1707 45.1389 50.0843 45.092 50.0152C40.2842 45.4519 46.0825 29.8109 47.2 26.9319C45.3074 26.9674 43.4267 26.6186 41.6679 25.9059C39.909 25.1931 38.3071 24.1308 36.9557 22.7807C35.6043 21.4306 34.5304 19.8199 33.7967 18.0426C33.063 16.2653 32.6842 14.3569 32.6824 12.4289C32.6844 9.96873 33.3001 7.54943 34.4717 5.39808C35.6433 3.24672 37.3324 1.43386 39.3804 0.129654C39.1717 0.0980029 38.9675 -0.00155341 38.7599 1.84028e-05ZM20.9331 50.5013C20.8305 54.492 23.5448 58.0852 27.5197 58.8548C30.343 59.3994 33.0838 58.3753 34.9257 56.3998L20.9331 50.5013Z" fill="black"/>
<path d="M57.5108 12.304C57.5108 15.0269 56.4307 17.6382 54.5081 19.5636C52.5855 21.489 49.9779 22.5707 47.2589 22.5707C44.5399 22.5707 41.9323 21.489 40.0097 19.5636C38.0871 17.6382 37.007 15.0269 37.007 12.304C37.007 9.58107 38.0871 6.96969 40.0097 5.04431C41.9323 3.11893 44.5399 2.03726 47.2589 2.03726C49.9779 2.03726 52.5855 3.11893 54.5081 5.04431C56.4307 6.96969 57.5108 9.58107 57.5108 12.304Z" fill="#D33636"/>
</svg>
